<?xml version="1.0" standalone="no"?>
<!DOCTYPE svg PUBLIC "-//W3C//DTD SVG 20010904//EN"
 "http://www.w3.org/TR/2001/REC-SVG-20010904/DTD/svg10.dtd">
<svg version="1.0" xmlns="http://www.w3.org/2000/svg"
 width="90px" height="90px" viewBox="0 0 265.000000 177.000000"
 preserveAspectRatio="xMidYMid meet">

<g transform="translate(0.000000,177.000000) scale(0.100000,-0.100000)"
fill="#f6c16f" stroke="none"> 
<path d="M636 1261 l-227 -389 228 -391 228 -391 459 3 459 2 228 389 229 388
-228 389 -227 388 -461 1 -461 0 -227 -389z m1250 -70 c101 -173 184 -316 184
-318 0 -8 -353 -608 -368 -626 -14 -16 -42 -17 -385 -15 l-371 3 -188 320
c-170 289 -186 321 -174 340 7 11 82 137 166 280 84 143 164 277 177 298 l23
37 376 -2 376 -3 184 -314z" />
<path d="M1257 1096 c-158 -59 -217 -256 -118 -393 64 -89 215 -124 321 -76
81 37 90 52 90 148 l0 85 -60 0 -60 0 0 -69 c0 -75 3 -72 -67 -86 -47 -9 -117
24 -139 67 -24 45 -24 125 1 167 42 71 149 92 215 42 l29 -21 27 35 c14 19 24
41 21 49 -19 48 -183 81 -260 52z" />
</g>
</svg>
